<?xml version="1.0" encoding="UTF-8"?>
<svg id="Capa_1" data-name="Capa 1" xmlns="http://www.w3.org/2000/svg" version="1.1" viewBox="0 0 14400 14400">
  <defs>
    <style>
      .cls-1 {
        fill: #fff18a;
      }

      .cls-1, .cls-2 {
        stroke-width: 0px;
      }

      .cls-2 {
        fill: #000;
      }
    </style>
  </defs>
  <g>
    <path class="cls-1" d="M7225,7342.6c-4.9,0-9.2-3.7-9.9-8.5l-1.4-9.5c-4.7.5-9.4.8-14,.8s-8.5-.2-12.7-.7l-1.6,8.7c-.9,4.8-5,8.2-9.8,8.2s-1.2,0-1.8-.2c-5.4-1-9.1-6.2-8.1-11.6l1.6-9.2c-3.2-1-6.3-2-9.4-3.3-2-.8-6.3-2.5-11.6-5.3l-4.3,6.4c-1.9,2.8-5,4.5-8.3,4.5s-3.9-.6-5.5-1.7c-4.6-3.1-5.8-9.3-2.8-13.9l4-6c-4.7-3.6-8.9-7.5-12.6-11.5l-7.9,5c-1.6,1-3.4,1.5-5.3,1.5-3.5,0-6.6-1.8-8.5-4.7-2.9-4.7-1.5-10.9,3.2-13.8l7.4-4.6c-1.6-3.3-2.8-6.6-3.8-10-.4-1.5-1.1-3.9-1.7-6.9l-8.9-.4c-2.7-.1-5.1-1.3-6.9-3.3-1.8-2-2.7-4.5-2.6-7.2.3-5.3,4.7-9.5,10-9.5s.3,0,.5,0l7.6.4c.7-4.1,2-8,3.7-11.7.8-1.7,1.7-3.4,2.8-5.1l-6.5-5.4c-4.2-3.5-4.8-9.9-1.3-14.1,1.9-2.3,4.7-3.6,7.7-3.6s4.6.8,6.4,2.3l7.3,6.1c4.6-3.4,9.6-5.7,14.7-6.8v-8.5c0-5.5,4.4-10,9.9-10,5.5,0,10,4.5,10,10v10.3c3.1,1.3,5.9,2.8,8.9,4.5,1.3.7,2.6,1.4,3.9,2.1l3.2-7.5c1.6-3.7,5.2-6.1,9.2-6.1s2.7.3,3.9.8c5.1,2.2,7.4,8,5.3,13.1l-2.5,5.9c1.7.2,3.4.3,5.2.3s1.2,0,1.8,0c2.1,0,6.1-.2,10.4-1.1l-2.3-3.1c-1.6-2.1-2.3-4.8-1.9-7.4.4-2.6,1.8-5,3.9-6.6,1.7-1.3,3.8-2,6-2,3.1,0,6.1,1.5,8,4l3.3,4.5c1.3-2.2,3-5.7,3.2-9.9.3-8.8-6.7-14.2-15.6-21.1-.5-.4-1-.7-1.4-1.1l-7.8,6.7c-1.8,1.6-4.1,2.4-6.5,2.4s-5.7-1.3-7.6-3.5c-1.7-2-2.6-4.6-2.4-7.3.2-2.7,1.4-5.1,3.5-6.8l6-5.2c-3.4-4.1-6-8.3-7.9-13-.5-1.1-.9-2.3-1.3-3.6l-5.7,1c-.6,0-1.1.1-1.7.1-4.9,0-9-3.5-9.9-8.3-.4-2.6.2-5.3,1.7-7.5,1.5-2.2,3.9-3.6,6.5-4.1l6.4-1.1c.3-7.5,2.1-14.6,5.1-20.6l-6.7-6.6c-3.9-3.9-4-10.2-.1-14.1,1.9-1.9,4.4-3,7.1-3s5.1,1,7,2.9l6.2,6.1c6-3.7,13.2-5.7,21.4-6.1l.7-8.2c.4-5.2,4.8-9.2,9.9-9.2s.6,0,.8,0c2.7.2,5.1,1.5,6.8,3.5,1.7,2,2.6,4.6,2.3,7.3l-.7,8.4c2.5.6,4.4,1.1,5.5,1.4,5.2,1.5,10.3,3.6,15.2,6.2l3.8-4.7c1.9-2.3,4.7-3.7,7.8-3.7s4.5.8,6.3,2.3c2.1,1.7,3.4,4.1,3.6,6.7.3,2.7-.5,5.3-2.2,7.3l-3.1,3.8c4.3,4.1,8.5,8.7,12.3,13.9l5.5-3.8c1.7-1.2,3.7-1.8,5.7-1.8,3.3,0,6.3,1.6,8.2,4.3,3.2,4.5,2.1,10.8-2.5,13.9l-6.4,4.5c2.1,4,3.7,7.5,4.9,9.9.6,1.2,1.9,4.2,3.5,8.6l8.5-2.9c1-.4,2.1-.5,3.2-.5,4.3,0,8.1,2.7,9.5,6.8,1.8,5.2-1,10.9-6.2,12.7l-9.4,3.2c1.5,6.9,2.6,13.9,3.2,20.8l8.1.2c2.7,0,5.2,1.2,7,3.1,1.8,1.9,2.8,4.5,2.7,7.1-.1,5.5-4.5,9.7-10,9.7h-.3s-7.3-.2-7.3-.2c-.4,7.3-1.4,14.4-3,21.4l5.9,1.4c5.4,1.3,8.7,6.7,7.4,12-1.1,4.5-5.1,7.7-9.7,7.7s-1.6,0-2.3-.3l-7.3-1.7c-1.7,4.3-3.7,8.5-5.9,12.6-1,1.9-2.2,4-3.7,6.5l7.4,4.9c4.6,3,5.9,9.2,2.9,13.8-1.9,2.8-5,4.5-8.4,4.5s-3.8-.6-5.5-1.6l-7.9-5.2c-4,4.8-8.3,9.3-12.8,13.3l5.5,8c3.1,4.5,2,10.8-2.6,13.9-1.7,1.2-3.6,1.8-5.7,1.8-3.3,0-6.4-1.6-8.2-4.3l-5.1-7.4c-4.7,2.9-9.6,5.4-14.6,7.5-1.9.8-5.7,2.2-10.8,3.7l1.5,10.5c.8,5.5-3,10.5-8.4,11.4-.5,0-1,.1-1.5.1Z"/>
    <path class="cls-2" d="M7231.3,7063.3c.2,0,.4,0,.6,0,3.9.3,6.7,3.7,6.4,7.5l-.9,11c3.7.7,6.5,1.5,7.9,1.9,6.1,1.7,11.7,4.2,16.7,7.2l5.4-6.6c1.4-1.7,3.4-2.6,5.4-2.6,1.6,0,3.1.5,4.4,1.6,3,2.4,3.4,6.9,1,9.8l-4.9,6c6.3,5.5,11.5,11.7,15.7,17.7l7.9-5.5c1.2-.9,2.6-1.3,4-1.3,2.2,0,4.4,1,5.7,3,2.2,3.2,1.5,7.5-1.7,9.7l-8.6,6c2.7,4.9,4.7,9.1,6,12.1.6,1.3,2.4,5.2,4.4,11.1l11.4-3.9c.7-.3,1.5-.4,2.3-.4,2.9,0,5.6,1.8,6.6,4.7,1.2,3.7-.7,7.6-4.4,8.9l-12,4.1c1.8,7.4,3.3,16.1,3.9,25.7l10.8.3c3.9.1,6.9,3.3,6.8,7.2-.1,3.8-3.2,6.8-7,6.8s-.1,0-.2,0l-10.2-.3c-.3,8.5-1.4,17.5-3.8,26.7l8.8,2.1c3.8.9,6.1,4.7,5.2,8.4-.8,3.2-3.6,5.4-6.8,5.4s-1.1,0-1.6-.2l-9.8-2.3c-1.8,4.9-4,9.8-6.7,14.7-1.2,2.2-2.9,5.3-5.1,8.8l9.8,6.4c3.2,2.1,4.1,6.5,2,9.7-1.3,2.1-3.6,3.2-5.9,3.2s-2.6-.4-3.8-1.1l-10.2-6.7c-4.3,5.5-9.6,11.3-16.2,16.8l7,10.2c2.2,3.2,1.4,7.5-1.8,9.7-1.2.8-2.6,1.2-4,1.2-2.2,0-4.4-1.1-5.8-3l-6.7-9.8c-5,3.2-10.5,6.2-16.6,8.8-1.6.7-6.2,2.5-13,4.3l1.9,13.1c.6,3.8-2.1,7.4-5.9,7.9-.3,0-.7,0-1,0-3.4,0-6.4-2.5-6.9-6l-1.8-12.4c-5,.7-10.6,1.2-16.5,1.2s-9.9-.3-15.1-1l-2.1,11.5c-.6,3.4-3.6,5.8-6.9,5.8s-.8,0-1.2-.1c-3.8-.7-6.3-4.3-5.7-8.1l2.1-11.8c-3.8-1-7.7-2.3-11.7-3.9-2.6-1-7.7-3.1-13.7-6.4l-5.8,8.7c-1.3,2-3.6,3.1-5.8,3.1s-2.7-.4-3.9-1.2c-3.2-2.1-4.1-6.5-2-9.7l5.5-8.3c-5.5-4-11.2-8.8-16.1-14.7l-10.1,6.3c-1.2.7-2.4,1.1-3.7,1.1-2.3,0-4.6-1.2-5.9-3.3-2.1-3.3-1.1-7.6,2.2-9.6l9.7-6.1c-2-3.7-3.6-7.7-4.8-12-.6-1.9-1.4-5-2-8.9l-11.3-.6c-3.9-.2-6.8-3.5-6.6-7.3.2-3.8,3.3-6.6,7-6.6.1,0,.2,0,.3,0l10.3.5c.5-4.3,1.7-8.9,3.9-13.6,1.1-2.3,2.5-4.7,4.1-7l-8.5-7.1c-3-2.5-3.4-6.9-.9-9.9,1.4-1.7,3.4-2.5,5.4-2.5,1.6,0,3.2.5,4.5,1.6l9.1,7.6c5-4.1,11-7.1,17.7-8.2,0,0,0,0,0,0v-10.9c0-3.9,3.1-7,6.9-7h0c3.9,0,7,3.1,7,7v12.3c5.8,2.1,11,5.6,17.3,8.7l4.5-10.5c1.1-2.7,3.7-4.3,6.4-4.3.9,0,1.8.2,2.7.6,3.6,1.5,5.2,5.6,3.7,9.2l-4,9.4c2.9.5,6,.8,9.5.8s1.2,0,1.9,0c3.3-.1,9.3-.4,15.4-2.3l-5-6.6c-2.3-3.1-1.7-7.5,1.4-9.8,1.3-.9,2.7-1.4,4.2-1.4,2.1,0,4.2,1,5.6,2.8l5.7,7.6c.5-.5.9-1,1.3-1.6,1-1.3,4.6-6.5,4.9-13.2.4-11.6-9.6-17.9-20.1-26.2l-9.6,8.3c-1.3,1.1-2.9,1.7-4.6,1.7s-3.9-.8-5.3-2.4c-2.5-2.9-2.2-7.4.7-9.9l8.3-7.1c-3.7-4-7-8.7-9.4-14.4-.8-1.9-1.4-3.8-2-5.8l-8.3,1.4c-.4,0-.8,0-1.2,0-3.4,0-6.3-2.4-6.9-5.8-.6-3.8,1.9-7.4,5.7-8.1l8.8-1.5c0-8.3,1.8-16.7,5.9-23.7l-8.3-8.1c-2.8-2.7-2.8-7.1,0-9.9,1.4-1.4,3.2-2.1,5-2.1,1.8,0,3.5.7,4.9,2l7.9,7.8c7.5-5.3,16.5-7,24.6-7l.9-10.8c.3-3.7,3.4-6.4,7-6.4M7231.3,7057.3h0c-6.7,0-12.4,5.2-12.9,11.9l-.5,5.6c-6.8.6-12.9,2.4-18.2,5.2l-4.6-4.5c-2.4-2.4-5.7-3.7-9.1-3.7-3.5,0-6.8,1.4-9.3,3.9-2.4,2.5-3.7,5.8-3.7,9.2,0,3.5,1.4,6.7,3.9,9.2l5.2,5c-2.4,5.3-3.9,11.2-4.4,17.4l-4,.7c-3.4.6-6.4,2.5-8.4,5.3-2,2.8-2.8,6.3-2.2,9.7,1.1,6.3,6.4,10.8,12.8,10.8s1.5,0,2.2-.2l3.2-.5c.2.5.3.9.5,1.3,1.7,4,3.8,7.8,6.5,11.4l-3.8,3.3c-2.6,2.3-4.2,5.4-4.5,8.9-.3,3.5.8,6.8,3.1,9.5,2.5,2.9,6.1,4.5,9.9,4.5s6.1-1.1,8.5-3.1l5.9-5.1c9.1,7.1,14.1,11.5,13.9,18.2,0,1.5-.4,2.9-.8,4.2l-.4-.5c-2.4-3.3-6.3-5.2-10.4-5.2-2.8,0-5.5.9-7.8,2.6-2.8,2.1-4.6,5.1-5.1,8.6-.4,3.1.2,6.1,1.8,8.7-2.1.2-3.9.3-5.1.3-.6,0-1.1,0-1.7,0s-.5,0-.8,0l.8-1.9c1.4-3.2,1.4-6.7.1-9.9-1.3-3.2-3.8-5.7-7-7.1-1.6-.7-3.3-1-5.1-1-5.2,0-9.9,3.1-12,7.9l-1.9,4.5c-.3-.2-.7-.4-1-.5-2.4-1.3-4.8-2.6-7.3-3.8v-8.3c0-7.1-5.9-13-13-13-7.2,0-13,5.9-13,13v6.1c-4,1.2-7.8,3-11.5,5.4l-5.5-4.6c-2.3-2-5.3-3-8.3-3-3.9,0-7.5,1.7-10,4.7-4.6,5.5-3.9,13.7,1.6,18.3l4.5,3.8c-.6,1-1.1,2.1-1.6,3.1-1.5,3.1-2.6,6.5-3.4,9.9l-5-.3c-.2,0-.4,0-.6,0-6.9,0-12.7,5.4-13,12.3-.2,3.5,1,6.8,3.3,9.4,2.3,2.6,5.5,4.1,9,4.3l6.6.3c.5,2,.9,3.6,1.3,4.8.8,2.7,1.7,5.4,2.9,8.1l-5.2,3.2c-6.1,3.8-7.9,11.8-4.1,17.9,2.4,3.8,6.5,6.1,11,6.1s4.8-.7,6.9-2l5.8-3.7c2.8,2.9,5.8,5.7,9.1,8.3l-2.4,3.6c-4,6-2.3,14.1,3.6,18,2.1,1.4,4.6,2.2,7.2,2.2,4.4,0,8.4-2.2,10.8-5.8l2.8-4.2c4.3,2.1,7.7,3.5,9.5,4.2,2.3.9,4.7,1.8,7.1,2.6l-1.2,6.6c-.6,3.4.1,6.9,2.1,9.7,2,2.9,5,4.8,8.4,5.4.8.1,1.5.2,2.3.2,6.3,0,11.7-4.5,12.8-10.7l1.1-6c3.4.3,6.8.4,10.2.4s7.6-.2,11.5-.5l1,6.6c.9,6.3,6.5,11.1,12.9,11.1s1.3,0,1.9-.1c7.1-1,12-7.7,11-14.8l-1.2-7.9c4-1.2,6.9-2.4,8.6-3.1,4.3-1.8,8.5-3.9,12.6-6.2l3.5,5.1c2.4,3.5,6.4,5.6,10.7,5.6s5.2-.8,7.4-2.3c5.9-4.1,7.4-12.2,3.4-18.1l-4-5.8c3.3-3.1,6.5-6.4,9.5-9.8l5.7,3.7c2.1,1.4,4.6,2.1,7.1,2.1,4.4,0,8.5-2.2,10.9-5.9,1.9-2.9,2.6-6.4,1.8-9.8-.7-3.4-2.7-6.3-5.6-8.2l-5-3.3c.9-1.5,1.6-2.9,2.3-4.1,1.8-3.4,3.5-6.9,5-10.5l4.8,1.1c1,.2,2,.4,3,.4,6,0,11.2-4.1,12.6-10,1.7-7-2.7-14-9.6-15.7l-3.1-.7c1.1-5.3,1.8-10.6,2.3-16.1h4.4c.1.1.2.1.4.1,7.1,0,12.8-5.6,13-12.6,0-3.5-1.2-6.8-3.6-9.3-2.4-2.5-5.6-4-9.1-4.1h-5.4c-.5-5.4-1.3-10.7-2.4-16l6.9-2.4c6.8-2.3,10.4-9.7,8.1-16.5-1.8-5.3-6.7-8.8-12.3-8.8-1.4,0-2.8.2-4.2.7l-5.8,2c-1.1-2.8-2-4.9-2.6-6-.9-2-2.1-4.6-3.7-7.7l4.2-3c2.8-2,4.7-5,5.3-8.4.6-3.4-.2-6.9-2.2-9.7-2.4-3.5-6.4-5.5-10.7-5.5-2.7,0-5.3.8-7.5,2.4l-3.1,2.2c-2.8-3.6-5.8-7-8.9-10l1.4-1.7c2.2-2.7,3.2-6.1,2.9-9.5-.3-3.5-2-6.6-4.7-8.8-2.3-1.9-5.2-2.9-8.2-2.9-3.9,0-7.6,1.7-10.1,4.8l-2.2,2.7c-4.4-2.2-9-4-13.6-5.3-.7-.2-1.8-.5-3.1-.8l.5-5.8c.3-3.5-.8-6.8-3-9.5-2.2-2.6-5.4-4.3-8.9-4.5-.3,0-.7,0-1.1,0h0Z"/>
  </g>
  <g>
    <path class="cls-1" d="M7091.9,7180.2c-2.5,0-4.2-1.6-5.6-2.8-.5-.4-1.2-1.1-1.6-1.2h0s0,0-.2,0c-.5,0-1.2.2-1.9.3-.9.2-2,.4-3.1.4s-2.2-.3-3-.8c-2.1-1.2-2.8-3.4-3.4-5.2-.2-.6-.5-1.7-.8-1.9-.2-.2-1.3-.6-1.9-.8-1.8-.6-4-1.3-5.2-3.4-1.2-2.1-.7-4.3-.3-6.2.1-.7.4-1.8.3-2.1-.1-.3-.8-1.1-1.2-1.6-1.3-1.4-2.8-3.1-2.8-5.6s1.6-4.2,2.8-5.6c.5-.5,1.1-1.2,1.2-1.6,0-.3-.2-1.4-.3-2.1-.4-1.8-.9-4.1.3-6.2,1.2-2.1,3.4-2.8,5.2-3.4.6-.2,1.7-.5,1.9-.8.2-.2.6-1.3.8-1.9.6-1.8,1.3-4,3.4-5.2.9-.5,1.9-.8,3-.8s2.2.2,3.1.4c.7.1,1.4.3,1.9.3s.2,0,.2,0c.3-.1,1.1-.8,1.6-1.2,1.4-1.3,3.1-2.8,5.6-2.8s4.2,1.6,5.6,2.8c.5.4,1.2,1.1,1.6,1.2h0s0,0,.2,0c.5,0,1.2-.2,1.9-.3.9-.2,2-.4,3.1-.4s2.2.3,3,.8c2.1,1.2,2.8,3.4,3.4,5.2.2.6.5,1.7.8,1.9.2.2,1.3.6,1.9.8,1.8.6,4,1.3,5.2,3.4,1.2,2.1.7,4.3.3,6.2-.1.7-.4,1.8-.3,2.1.1.3.8,1.1,1.2,1.6,1.3,1.4,2.8,3.1,2.8,5.6s-1.6,4.2-2.8,5.6c-.5.5-1.1,1.2-1.2,1.6,0,.3.2,1.4.3,2.1.4,1.8.9,4.1-.3,6.2-1.2,2.1-3.4,2.8-5.2,3.4-.6.2-1.7.5-1.9.8-.2.2-.6,1.3-.8,1.9-.6,1.8-1.3,4-3.4,5.2-.9.5-1.9.8-3,.8s-2.2-.2-3.1-.4c-.7-.1-1.4-.3-1.9-.3s-.2,0-.2,0c-.3.1-1.1.8-1.6,1.2-1.4,1.3-3.1,2.8-5.6,2.8Z"/>
    <path class="cls-2" d="M7091.9,7121.5c2.3,0,4.2,3.4,6.4,4,.3,0,.6.1,1,.1,1.6,0,3.5-.7,5-.7.6,0,1.1,0,1.5.4,2,1.2,1.9,5,3.5,6.6,1.6,1.6,5.5,1.5,6.6,3.5,1.1,2-.9,5.3-.3,7.5.6,2.2,4,4,4,6.4s-3.4,4.2-4,6.4c-.6,2.2,1.4,5.6.3,7.5-1.2,2-5,1.9-6.6,3.5-1.6,1.6-1.5,5.5-3.5,6.6-.5.3-1,.4-1.5.4-1.6,0-3.4-.7-5-.7-.3,0-.7,0-1,.1-2.2.6-4,4-6.4,4s-4.2-3.4-6.4-4c-.3,0-.6-.1-1-.1-1.6,0-3.5.7-5,.7s-1.1,0-1.5-.4c-2-1.2-1.9-5-3.5-6.6-1.6-1.6-5.5-1.5-6.6-3.5-1.1-2,.9-5.3.3-7.5-.6-2.2-4-4-4-6.4s3.4-4.2,4-6.4c.6-2.2-1.4-5.6-.3-7.5,1.2-2,5-1.9,6.6-3.5,1.6-1.6,1.5-5.5,3.5-6.6.5-.3,1-.4,1.5-.4,1.6,0,3.4.7,5,.7s.7,0,1-.1c2.2-.6,4-4,6.4-4M7091.9,7115.5c-3.6,0-6,2.2-7.6,3.6-.1.1-.3.2-.4.4-.2,0-.4,0-.6-.1-1-.2-2.3-.5-3.7-.5s-3.2.4-4.5,1.2c-3.1,1.8-4.1,4.9-4.7,6.9,0,.2-.1.4-.2.6-.2,0-.4.1-.6.2-2,.7-5.1,1.6-6.9,4.7-1.8,3.1-1.1,6.2-.7,8.3,0,.2,0,.4.1.6-.1.1-.3.3-.4.4-1.4,1.6-3.6,4-3.6,7.6s2.2,6,3.6,7.6c.1.1.2.3.4.4,0,.2,0,.4-.1.6-.4,2.1-1.1,5.2.7,8.3,1.8,3.1,4.9,4.1,6.9,4.7.2,0,.4.1.6.2,0,.2.1.4.2.6.7,2,1.6,5.1,4.7,6.9,1.3.8,2.9,1.2,4.5,1.2s2.7-.3,3.7-.5c.2,0,.4,0,.6-.1.1.1.3.3.4.4,1.6,1.4,4,3.6,7.6,3.6s6-2.2,7.6-3.6c.1-.1.3-.2.4-.4.2,0,.4,0,.6.1,1,.2,2.3.5,3.7.5s3.2-.4,4.5-1.2c3.1-1.8,4.1-4.9,4.7-6.9,0-.2.1-.4.2-.6.2,0,.4-.1.6-.2,2-.7,5.1-1.6,6.9-4.7,1.8-3.1,1.1-6.2.7-8.3,0-.2,0-.4-.1-.6.1-.1.3-.3.4-.4,1.4-1.6,3.6-4,3.6-7.6s-2.2-6-3.6-7.6c-.1-.1-.2-.3-.4-.4,0-.2,0-.4.1-.6.4-2.1,1.1-5.2-.7-8.3-1.8-3.1-4.9-4.1-6.9-4.7-.2,0-.4-.1-.6-.2,0-.2-.1-.4-.2-.6-.7-2-1.6-5.1-4.7-6.9-1.3-.8-2.9-1.2-4.5-1.2-1.4,0-2.7.3-3.7.5-.2,0-.4,0-.6.1-.1-.1-.3-.3-.4-.4-1.6-1.4-4-3.6-7.6-3.6h0Z"/>
  </g>
  <g>
    <path class="cls-1" d="M7139.6,7124.5c-1.9,0-3.2-1.2-4-1.9-.1,0-.2-.2-.4-.3-.2,0-.4,0-.5.1-.6.1-1.3.3-2,.3-.9,0-1.7-.2-2.4-.6-1.6-.9-2.1-2.6-2.5-3.7,0-.1-.1-.3-.2-.5-.2,0-.3-.1-.5-.2-1.1-.4-2.7-.9-3.7-2.5-.9-1.6-.6-3.3-.3-4.4,0-.2,0-.4.1-.5-.1-.1-.2-.3-.3-.4-.8-.9-1.9-2.1-1.9-4s1.2-3.2,1.9-4c0-.1.2-.2.3-.4,0-.2,0-.4-.1-.5-.2-1.1-.6-2.8.3-4.4.9-1.6,2.6-2.1,3.7-2.5.1,0,.3-.1.5-.2,0-.2.1-.3.2-.5.4-1.1.9-2.7,2.5-3.7.7-.4,1.5-.6,2.4-.6s1.4.1,2,.3c.2,0,.4,0,.5.1.1-.1.3-.2.4-.3.9-.8,2.1-1.9,4-1.9s3.2,1.2,4,1.9c.1,0,.2.2.4.3.2,0,.4,0,.5-.1.6-.1,1.3-.3,2-.3s1.7.2,2.4.6c1.6.9,2.1,2.6,2.5,3.7,0,.1.1.3.2.5.2,0,.3.1.5.2,1.1.4,2.7.9,3.7,2.5.9,1.6.6,3.3.3,4.4,0,.2,0,.4-.1.5.1.1.2.3.3.4.8.9,1.9,2.1,1.9,4s-1.2,3.2-1.9,4c0,.1-.2.2-.3.4,0,.2,0,.4.1.5.2,1.1.6,2.8-.3,4.4-.9,1.6-2.6,2.1-3.7,2.5-.1,0-.3.1-.5.2,0,.2-.1.3-.2.5-.4,1.1-.9,2.7-2.5,3.7-.7.4-1.5.6-2.4.6s-1.4-.1-2-.3c-.2,0-.4,0-.5-.1-.1.1-.3.2-.4.3-.9.8-2.1,1.9-4,1.9Z"/>
    <path class="cls-2" d="M7139.6,7090.4c1.3,0,2.4,1.9,3.6,2.2.2,0,.4,0,.5,0,.9,0,1.9-.4,2.8-.4.3,0,.6,0,.9.2,1.1.6,1.1,2.8,2,3.7.9.9,3.1.9,3.7,2,.6,1.1-.5,3-.1,4.2.3,1.2,2.2,2.3,2.2,3.6s-1.9,2.4-2.2,3.6c-.3,1.3.8,3.1.1,4.2-.6,1.1-2.8,1.1-3.7,2-.9.9-.9,3.1-2,3.7-.3.1-.5.2-.9.2-.9,0-1.9-.4-2.8-.4-.2,0-.4,0-.5,0-1.2.3-2.3,2.2-3.6,2.2s-2.4-1.9-3.6-2.2c-.2,0-.4,0-.5,0-.9,0-1.9.4-2.8.4s-.6,0-.9-.2c-1.1-.6-1.1-2.8-2-3.7-.9-.9-3.1-.9-3.7-2-.6-1.1.5-3,.1-4.2-.3-1.2-2.2-2.3-2.2-3.6s1.9-2.4,2.2-3.6c.3-1.3-.8-3.1-.1-4.2.6-1.1,2.8-1.1,3.7-2,.9-.9.9-3.1,2-3.7.3-.1.5-.2.9-.2.9,0,1.9.4,2.8.4s.4,0,.5,0c1.2-.3,2.3-2.2,3.6-2.2M7139.6,7084.4c-2.4,0-4.1,1.1-5.2,2-.5,0-1.1-.1-1.7-.1-1.4,0-2.7.3-3.9,1-2,1.2-3,3-3.5,4.4-1.3.5-3.2,1.5-4.4,3.5-1.2,2-1.1,4.1-.9,5.5-.9,1.1-2,2.9-2,5.3s1.1,4.1,2,5.3c-.2,1.4-.3,3.5.9,5.5,1.2,2,3,3,4.4,3.5.5,1.3,1.5,3.2,3.5,4.4,1.2.7,2.5,1,3.9,1s1.2,0,1.7-.1c1.1.9,2.9,2,5.2,2s4.1-1.1,5.2-2c.5,0,1.1.1,1.7.1,1.4,0,2.7-.3,3.9-1,2-1.2,3-3,3.5-4.4,1.3-.5,3.2-1.5,4.4-3.5,1.2-2,1.1-4.1.9-5.5.9-1.1,2-2.9,2-5.3s-1.1-4.1-2-5.3c.2-1.4.3-3.5-.9-5.5-1.2-2-3-3-4.4-3.5-.5-1.3-1.5-3.2-3.5-4.4-1.2-.7-2.5-1-3.9-1-.6,0-1.2,0-1.7.1-1.1-.9-2.9-2-5.2-2h0Z"/>
  </g>
</svg>